#!OML:ASF F:\VICON\USERDATA\INSTALL\rory3\rory3.ASF
:FULLY-SPECIFIED
:DEGREES
81
root -0.08879927027005391 18.030050258343913 8.98911417902328 -2.0292779113228283 -4.064158842147966 -8.611216757861802
lfemur -29.674779799246178 -0.45043450520955686 -9.842001143872396
ltibia 38.796120256422675
lfoot -7.019448602164408 7.0773898291642485
ltoes -4.2937772934639
rfemur 4.124992468545354 7.272005803309954 35.884816577152506
rtibia 20.622961785200353
rfoot -22.58457556191377 -8.420828317872726
rtoes 5.273805086912544
lowerback 9.674844729053984 2.0828471967629714 7.564291480905562
upperback 0.40707868677207426 3.743502421860758 2.3497472676908906
thorax -4.856833683470466 1.702205686554827 -2.3418084100821375
lowerneck -16.839007337852802 -3.1457340475586717 -1.5446954387817193
upperneck 20.481710951507026 -4.137392448061341 0.9885400579767649
head 9.26323457854069 -1.9519816891880344 0.026193990780310927
lclavicle -2.8942090569339607e-15 4.0636302252499704e-17
lhumerus -36.86198012962222 1.0508080924265208 84.06373153092406
lradius 25.419903425609036
lwrist 5.218711937360536
lhand -26.93143501039751 23.77319317681618
lfingers 7.12502
lthumb -0.3538435315918973 53.74492504375927
rclavicle -2.8942090569339607e-15 4.0636302252499704e-17
rhumerus -23.72014031138682 -10.302768652551883 -82.42217684781626
rradius 27.31534387172122
rwrist 1.2416236917523316
rhand -18.41403346996388 22.585561699916383
rfingers 7.12502
rthumb 7.870667859289108 -7.2456033007790595
82
root -0.03692796577875829 17.945801879159106 9.66394122600659 -1.3499617822203767 -4.718116679876852 -8.963499319342358
lfemur -29.65910928396892 -2.495102385531442 -8.755276842329117
ltibia 27.68446349289362
lfoot -6.779327117102099 9.086159042089381
ltoes -4.0897666155197605
rfemur 7.394794317462388 7.4354421136885716 36.3476636980881
rtibia 19.116593512016962
rfoot -23.972160567296577 -8.281253082057656
rtoes 3.061737551560182
lowerback 9.458466128413868 2.4401606684177217 8.142556939845466
upperback 0.3431147816511255 4.259478691877288 2.311687853134438
thorax -4.762832294023648 1.9470872361004243 -2.7066703257799403
lowerneck -17.04435880365952 -3.1485468319190337 -1.4651827066374408
upperneck 20.260286437183453 -4.146276140366149 1.01821116744594
head 9.214759332142325 -1.9522763918299437 0.022993024650265162
lclavicle -2.7513440524820624e-15 1.7222042833459057e-16
lhumerus -37.700709492274996 2.2061188558957694 83.84520366085972
lradius 24.709083950123215
lwrist 4.553456357678824
lhand -26.970789738245113 23.699337161459454
lfingers 7.12502
lthumb -0.39184661683150834 53.66983802305435
rclavicle -2.7513440524820624e-15 1.7222042833459057e-16
rhumerus -22.715642090347814 -8.935431539079564 -82.69663500563378
rradius 28.399164376748395
rwrist 0.36813646121836996
rhand -18.588515229156148 23.36173610027985
rfingers 7.12502
rthumb 7.702260333446632 -6.47784744142633
83
root 0.03305790948425302 17.866505306132964 11.34910435080595 -0.7963269461606481 -5.0639311889187155 -8.944544548714155
lfemur -28.580039647191487 -4.171252254588716 -7.890719710271291
ltibia 19.382157428983028
lfoot -5.923223987785674 9.979935666900245
ltoes -3.9708537034939897
rfemur 10.759529241778779 7.594461530001146 36.68024612321015
rtibia 18.90951073759124
rfoot -24.450700028403226 -7.489457540947251
rtoes 0.5386933693594917
lowerback 9.238813179562202 2.7703856084683176 8.551288933125031
upperback 0.2950960664708931 4.713726058903598 2.277595617251132
thorax -4.652348754986694 2.166007604298909 -2.8431631670378557
lowerneck -17.162022354181996 -3.1473466379899375 -1.383032595087193
upperneck 20.16333785784876 -4.148626126864268 1.072708703672523
head 9.20024187240549 -1.9504392027994188 0.033562455212575296
lclavicle -2.0694787472343946e-15 7.999155688372795e-16
lhumerus -38.13724666789309 3.6489660365360352 83.55365318644243
lradius 23.852659211192183
lwrist 3.7467600099500205
lhand -26.96828886774294 23.677100006003155
lfingers 7.12502
lthumb -0.38941514931357707 53.6477706628312
rclavicle -2.0694787472343946e-15 7.999155688372795e-16
rhumerus -21.902572338552194 -8.106920898587507 -82.70016869991964
rradius 29.229175678647394
rwrist 0.09472478152683728
rhand -18.64321434958678 23.995215453433172
rfingers 7.12502
rthumb 7.6494543830736195 -5.849197688633155
84
root 0.09798152585337971 17.789558686190563 11.779037514783662 -0.539484789005874 -5.391284600172474 -8.879649858093051
lfemur -28.224425876216355 -5.370772307285403 -8.101552422546098
ltibia 13.250792357403707
lfoot -5.319575932420605 9.23026475015349
ltoes -4.37374974124352
rfemur 12.817555419931065 7.481375783025836 36.185387261388435
rtibia 18.78553783722249
rfoot -24.247368742033657 -6.429461006249752
rtoes -2.323337840546442
lowerback 8.98579054577552 2.9331348462201374 8.425594444751173
upperback 0.23378707565632217 4.893196167806055 2.1363348839416862
thorax -4.582314570597472 2.2593242298357143 -3.0109721401052387
lowerneck -17.233659507949877 -3.174118174078784 -1.3637135151842128
upperneck 20.11774850231367 -4.194841933707661 1.0963826564550345
head 9.19156862311313 -1.9668349334461102 0.031103796907196626
lclavicle -2.4407720424411546e-15 4.576332657416067e-16
lhumerus -38.85569060699664 4.859208387675045 83.05257077853177
lradius 22.56758156780977
lwrist 2.578130087788724
lhand -26.900347906451568 23.561368322779046
lfingers 7.12502
lthumb -0.3237743782160093 53.53333774699373
rclavicle -2.4407720424411546e-15 4.576332657416067e-16
rhumerus -21.6241428177527 -8.20302962255678 -82.76496560577755
rradius 29.629187598148857
rwrist -0.11268100320506758
rhand -18.728645637392052 24.186189788689028
rfingers 7.12502
rthumb 7.56699760014371 -5.660154729825468
85
root 0.16879011037398312 17.72710074976008 12.101434543794868 -0.5615946856808365 -5.533171488002174 -8.550962405338469
lfemur -27.937740923731734 -5.895820038671382 -9.113467214330024
ltibia 10.35970607696807
lfoot -4.559706885993462 7.262106152636414
ltoes -4.63085999792596
rfemur 14.118345328726594 7.133243309725828 35.183252772909945
rtibia 20.16982042545497
rfoot -22.468039468729742 -4.7761035092142174
rtoes -4.8692450240270055
lowerback 8.755819713055608 3.009680962781291 7.995588344538079
upperback 0.17939811513072557 4.926558553436674 1.9372938694637702
thorax -4.53619332607512 2.286080169782545 -3.0823520741101125
lowerneck -17.1942858230828 -3.220327845858182 -1.37998324850401
upperneck 20.17135840167277 -4.269851371099841 1.1185336259426848
head 9.202467691518942 -1.9958146508013137 0.030901378394903214
lclavicle -2.936819729265375e-15 6.286760556509165e-19
lhumerus -39.555962826593586 6.147983034892202 82.40736500940179
lradius 21.01462762498167
lwrist 1.1933856894721453
lhand -26.769598769961828 23.36390199498532
lfingers 7.12502
lthumb -0.19747921039395844 53.336664447298624
rclavicle -2.936819729265375e-15 6.286760556509165e-19
rhumerus -21.704035886992536 -8.909874321393954 -82.71655754701294
rradius 29.750076722048053
rwrist -0.06276209914128827
rhand -18.801732959267117 24.226714204993964
rfingers 7.12502
rthumb 7.4964598814139105 -5.6208814916757435
86
root 0.26257687506885174 17.6935057723133 12.958882285415113 -0.8289706823954945 -5.490372441400012 -7.902446219919254
lfemur -27.624614765384624 -5.731061833592844 -10.659405729092562
ltibia 11.130819831061856
lfoot -3.440384880704255 4.493219303022531
ltoes -4.377760489360216
rfemur 15.095525403610736 6.6429606954530485 33.895072241675415
rtibia 23.69300246625152
rfoot -18.351410694388292 -2.3935709136940377
rtoes -6.106902800441892
lowerback 8.5899793793782 3.086431482164324 7.442599450925592
upperback 0.13425927593318826 4.947167406385254 1.693667796020772
thorax -4.516762853669326 2.3083327807864 -3.0583598857090495
lowerneck -17.05209894111485 -3.280914950931702 -1.4195113551308078
upperneck 20.296033119360697 -4.367418253118184 1.189208013727506
head 9.228787244319818 -2.033731489181664 0.047918759237102204
lclavicle -3.110741863502884e-15 -1.5973404310655298e-16
lhumerus -40.256565417192924 7.612464856124143 81.68036833286035
lradius 19.45332167421192
lwrist -0.259091942565548
lhand -26.308278504061843 23.38333763842856
lfingers 7.12502
lthumb 0.24808133020306122 53.35699193601751
rclavicle -3.110741863502884e-15 -1.5973404310655298e-16
rhumerus -22.02283628716381 -9.896962528766744 -82.54832439199032
rradius 29.7901629382578
rwrist 0.18612044130447103
rhand -18.835017523520204 24.088372446716743
rfingers 7.12502
rthumb 7.464335373336519 -5.759618555295079
87
root 0.3611250544518407 17.689792811023594 13.568233416489488 -1.311449346170983 -5.410312615094184 -6.924425281180751
lfemur -27.153917186853906 -5.1575101730816435 -12.841532457831441
ltibia 13.915206950939123
lfoot -2.7259388414314025 1.7160728884527636
ltoes -3.5228138857499847
rfemur 14.84753763108736 5.924509886395312 32.01672193311913
rtibia 29.55345786593871
rfoot -11.75465499469922 -0.02229199707541696
rtoes -5.541347431586956
lowerback 8.516601520981144 3.148939035004831 6.631500254038772
upperback 0.10328419235979291 4.923208246064181 1.3728664006150928
thorax -4.537832254749411 2.312263692292022 -2.9577938787266174
lowerneck -16.87818635676148 -3.3420873777946474 -1.465718438255915
upperneck 20.469591326560387 -4.467327105092272 1.265153248160383
head 9.27035521908336 -2.0722118073958784 0.06707919528289583
lclavicle -3.2470992870042695e-15 -2.8505702402368256e-16
lhumerus -40.901906699949414 8.873485794485333 81.01296383069659
lradius 18.067421823106738
lwrist -1.3935818159912605
lhand -25.816995321219153 23.477831660298975
lfingers 7.12502
lthumb 0.7225772977515426 53.45157011276162
rclavicle -3.2470992870042695e-15 -2.8505702402368256e-16
rhumerus -22.587686774825933 -11.115900365302522 -82.35877244148006
rradius 29.681372000962458
rwrist 0.5780057980545337
rhand -18.805359065832953 23.87744164219131
rfingers 7.12502
rthumb 7.492963105292072 -5.96886026000527
